<svg xmlns="http://www.w3.org/2000/svg">
  <symbol id="arrow-down" viewBox="0 0 24 24" fill="none" stroke="currentColor" stroke-width="2" stroke-linecap="round" stroke-linejoin="round">
    <path d="M12 5v14"/>
    <path d="m19 12-7 7-7-7"/>
  </symbol>
  <symbol id="arrow-up" viewBox="0 0 24 24" fill="none" stroke="currentColor" stroke-width="2" stroke-linecap="round" stroke-linejoin="round">
    <path d="M12 19V5"/>
    <path d="m5 12 7-7 7 7"/>
  </symbol>
  <symbol id="bell" viewBox="0 0 24 24" fill="none" stroke="currentColor" stroke-width="2" stroke-linecap="round" stroke-linejoin="round">
    <path d="M10 21h4"/>
    <path d="M18 8a6 6 0 0 0-12 0c0 7-3 7-3 9h18c0-2-3-2-3-9"/>
  </symbol>
  <symbol id="check-square" viewBox="0 0 24 24" fill="none" stroke="currentColor" stroke-width="2" stroke-linecap="round" stroke-linejoin="round">
    <path d="M9 11l3 3L22 4"/>
    <path d="M21 12v7a2 2 0 0 1-2 2H5a2 2 0 0 1-2-2V5a2 2 0 0 1 2-2h11"/>
  </symbol>
  <symbol id="clock-3" viewBox="0 0 24 24" fill="none" stroke="currentColor" stroke-width="2" stroke-linecap="round" stroke-linejoin="round">
    <circle cx="12" cy="12" r="9"/>
    <path d="M12 7v5h5"/>
  </symbol>
  <symbol id="external-link" viewBox="0 0 24 24" fill="none" stroke="currentColor" stroke-width="2" stroke-linecap="round" stroke-linejoin="round">
    <path d="M15 3h6v6"/>
    <path d="M10 14 21 3"/>
    <path d="M18 13v6a2 2 0 0 1-2 2H5a2 2 0 0 1-2-2V8a2 2 0 0 1 2-2h6"/>
  </symbol>
  <symbol id="heart" viewBox="0 0 24 24" fill="none" stroke="currentColor" stroke-width="2" stroke-linecap="round" stroke-linejoin="round">
    <path d="M20.8 5.7a5.5 5.5 0 0 0-7.8 0L12 6.7l-1-1a5.5 5.5 0 0 0-7.8 7.8l1 1L12 22l7.8-7.5 1-1a5.5 5.5 0 0 0 0-7.8Z"/>
  </symbol>
  <symbol id="layout-dashboard" viewBox="0 0 24 24" fill="none" stroke="currentColor" stroke-width="2" stroke-linecap="round" stroke-linejoin="round">
    <rect x="3" y="3" width="7" height="9" rx="1"/>
    <rect x="14" y="3" width="7" height="5" rx="1"/>
    <rect x="14" y="12" width="7" height="9" rx="1"/>
    <rect x="3" y="16" width="7" height="5" rx="1"/>
  </symbol>
  <symbol id="list-checks" viewBox="0 0 24 24" fill="none" stroke="currentColor" stroke-width="2" stroke-linecap="round" stroke-linejoin="round">
    <path d="m3 7 2 2 4-4"/>
    <path d="M11 7h10"/>
    <path d="m3 17 2 2 4-4"/>
    <path d="M11 17h10"/>
  </symbol>
  <symbol id="mail" viewBox="0 0 24 24" fill="none" stroke="currentColor" stroke-width="2" stroke-linecap="round" stroke-linejoin="round">
    <rect x="3" y="5" width="18" height="14" rx="2"/>
    <path d="m3 7 9 6 9-6"/>
  </symbol>
  <symbol id="repeat-2" viewBox="0 0 24 24" fill="none" stroke="currentColor" stroke-width="2" stroke-linecap="round" stroke-linejoin="round">
    <path d="m17 2 4 4-4 4"/>
    <path d="M3 11V8a2 2 0 0 1 2-2h16"/>
    <path d="m7 22-4-4 4-4"/>
    <path d="M21 13v3a2 2 0 0 1-2 2H3"/>
  </symbol>
  <symbol id="shield-check" viewBox="0 0 24 24" fill="none" stroke="currentColor" stroke-width="2" stroke-linecap="round" stroke-linejoin="round">
    <path d="M20 13c0 5-3.5 7.5-8 9-4.5-1.5-8-4-8-9V5l8-3 8 3v8Z"/>
    <path d="m9 12 2 2 4-5"/>
  </symbol>
  <symbol id="smartphone" viewBox="0 0 24 24" fill="none" stroke="currentColor" stroke-width="2" stroke-linecap="round" stroke-linejoin="round">
    <rect x="7" y="2" width="10" height="20" rx="2"/>
    <path d="M11 18h2"/>
  </symbol>
  <symbol id="sparkles" viewBox="0 0 24 24" fill="none" stroke="currentColor" stroke-width="2" stroke-linecap="round" stroke-linejoin="round">
    <path d="M12 3l1.8 4.2L18 9l-4.2 1.8L12 15l-1.8-4.2L6 9l4.2-1.8L12 3Z"/>
    <path d="M19 14l.9 2.1L22 17l-2.1.9L19 20l-.9-2.1L16 17l2.1-.9L19 14Z"/>
    <path d="M5 14l.9 2.1L8 17l-2.1.9L5 20l-.9-2.1L2 17l2.1-.9L5 14Z"/>
  </symbol>
  <symbol id="users" viewBox="0 0 24 24" fill="none" stroke="currentColor" stroke-width="2" stroke-linecap="round" stroke-linejoin="round">
    <path d="M16 21v-2a4 4 0 0 0-4-4H6a4 4 0 0 0-4 4v2"/>
    <circle cx="9" cy="7" r="4"/>
    <path d="M22 21v-2a4 4 0 0 0-3-3.9"/>
    <path d="M16 3.1a4 4 0 0 1 0 7.8"/>
  </symbol>
</svg>
